<mxfile host="65bd71144e">
    <diagram id="I4M9VPzilsI7Wyy_FVE7" name="Page-1">
        <mxGraphModel dx="576" dy="330" grid="1" gridSize="10" guides="1" tooltips="1" connect="1" arrows="1" fold="1" page="1" pageScale="1" pageWidth="850" pageHeight="1100" math="0" shadow="0">
            <root>
                <mxCell id="0"/>
                <mxCell id="1" parent="0"/>
                <mxCell id="2" value="Start" style="ellipse;whiteSpace=wrap;html=1;" vertex="1" parent="1">
                    <mxGeometry x="260" y="30" width="120" height="40" as="geometry"/>
                </mxCell>
                <mxCell id="3" value="string AB&lt;br&gt;AB = new string[count]&lt;br&gt;string AB2&lt;br&gt;AB2 = new string[count]&lt;br&gt;int count&lt;br&gt;" style="rounded=0;whiteSpace=wrap;html=1;" vertex="1" parent="1">
                    <mxGeometry x="245" y="100" width="150" height="180" as="geometry"/>
                </mxCell>
            </root>
        </mxGraphModel>
    </diagram>
</mxfile>